<svg width="32" height="32" viewBox="0 0 32 32" fill="none" xmlns="http://www.w3.org/2000/svg">
<path d="M15 11H17V20H15V11ZM13 2H19V4H13V2Z" fill="#268CEB"/>
<path d="M28.0004 8.99999L26.5804 7.58999L24.3304 9.83999C22.4886 7.71302 19.8982 6.37742 17.0973 6.1107C14.2964 5.84397 11.5004 6.66663 9.29022 8.40774C7.08007 10.1488 5.6257 12.6745 5.22929 15.46C4.83287 18.2456 5.52489 21.0767 7.16156 23.3653C8.79823 25.6538 11.2537 27.2239 14.0178 27.7491C16.7819 28.2744 19.6422 27.7145 22.0042 26.1858C24.3662 24.6571 26.0485 22.2771 26.7015 19.5403C27.3544 16.8036 26.9279 13.9204 25.5104 11.49L28.0004 8.99999ZM16.0004 26C14.2204 26 12.4803 25.4722 11.0003 24.4832C9.52025 23.4943 8.3667 22.0887 7.68551 20.4441C7.00432 18.7996 6.82609 16.99 7.17336 15.2442C7.52063 13.4983 8.37779 11.8947 9.63647 10.636C10.8951 9.37736 12.4988 8.52019 14.2446 8.17292C15.9904 7.82566 17.8 8.00389 19.4446 8.68508C21.0891 9.36626 22.4947 10.5198 23.4837 11.9999C24.4726 13.4799 25.0004 15.22 25.0004 17C25.0004 19.3869 24.0522 21.6761 22.3644 23.364C20.6766 25.0518 18.3874 26 16.0004 26Z" fill="#268CEB"/>
</svg>
