<svg width="40" height="41" viewBox="0 0 40 41" fill="none" xmlns="http://www.w3.org/2000/svg">
<g clip-path="url(#clip0_356_5179)">
<path d="M32.2472 13.0426C31.668 10.2067 30.1225 7.65958 27.8745 5.83613C25.6266 4.01269 22.8154 3.0259 19.921 3.0442C17.0265 3.06249 14.2281 4.08473 12.0034 5.93644C9.77863 7.78815 8.26548 10.3546 7.72216 13.1976C5.41512 13.6083 3.34567 14.8685 1.92193 16.7297C0.498196 18.5908 -0.176485 20.918 0.0309421 23.2521C0.238369 25.5862 1.31285 27.7578 3.04248 29.3388C4.77212 30.9198 7.03136 31.7953 9.37466 31.7926H9.99966V29.2926H9.37466C7.59036 29.2973 5.87425 28.6075 4.58947 27.3693C3.3047 26.1311 2.55207 24.4417 2.49084 22.6584C2.42961 20.8751 3.06459 19.138 4.26141 17.8146C5.45823 16.4912 7.12299 15.6854 8.90341 15.5676L9.94966 15.4964L10.0622 14.4551C10.3153 12.1299 11.3763 9.96727 13.0601 8.34388C14.7439 6.7205 16.9439 5.73931 19.2768 5.57125C21.6097 5.40319 23.9276 6.05892 25.8267 7.42419C27.7259 8.78946 29.0858 10.7777 29.6697 13.0426H32.2472Z" fill="#268CEB"/>
<path d="M35 15.543H22.5C21.8372 15.5436 21.2017 15.8072 20.733 16.2759C20.2643 16.7446 20.0007 17.3801 20 18.043V23.043H15C14.3372 23.0436 13.7017 23.3072 13.233 23.7759C12.7643 24.2446 12.5007 24.8801 12.5 25.543V38.043H37.5V18.043C37.4993 17.3801 37.2357 16.7446 36.767 16.2759C36.2983 15.8072 35.6628 15.5436 35 15.543ZM15 35.543V25.543H20V35.543H15ZM35 35.543H22.5V18.043H35V35.543Z" fill="#268CEB"/>
<path d="M25 20.543H27.5V25.543H25V20.543ZM30 20.543H32.5V25.543H30V20.543ZM25 28.043H27.5V33.043H25V28.043ZM30 28.043H32.5V33.043H30V28.043Z" fill="#268CEB"/>
</g>
<defs>
<clipPath id="clip0_356_5179">
<rect width="40" height="40" fill="white" transform="translate(0 0.542969)"/>
</clipPath>
</defs>
</svg>
