<svg width="113" height="37" viewBox="0 0 113 37" fill="none" xmlns="http://www.w3.org/2000/svg">
<g clip-path="url(#clip0_356_5149)">
<path d="M16.8433 21.2946H13.5596V18.0186H16.8433V21.2946Z" fill="#DC143C"/>
<path d="M12.3238 21.2946H9.04004V18.0186H12.3238V21.2946Z" fill="#DC143C"/>
<path d="M21.3638 16.7848H18.0801V13.5088H21.3638V16.7848Z" fill="#DC143C"/>
<path d="M16.8433 16.7848H13.5596V13.5088H16.8433V16.7848Z" fill="#DC143C"/>
<path d="M12.3238 16.7848H9.04004V13.5088H12.3238V16.7848Z" fill="#DC143C"/>
<path d="M7.80329 16.7848H4.51953V13.5088H7.80329V16.7848Z" fill="#DC143C"/>
<path d="M21.3638 12.2946H18.0801V9.01855H21.3638V12.2946Z" fill="#4E4E4E"/>
<path d="M16.8433 12.2946H13.5596V9.01855H16.8433V12.2946Z" fill="#4E4E4E"/>
<path d="M12.3238 12.2946H9.04004V9.01855H12.3238V12.2946Z" fill="#58BCAF"/>
<path d="M7.80329 12.2946H4.51953V9.01855H7.80329V12.2946Z" fill="#58BCAF"/>
<path d="M3.28376 12.2946H0V9.01855H3.28376V12.2946Z" fill="#58BCAF"/>
<path d="M21.3638 7.78581H18.0801V4.50977H21.3638V7.78581Z" fill="#4E4E4E"/>
<path d="M16.8433 7.78581H13.5596V4.50977H16.8433V7.78581Z" fill="#4E4E4E"/>
<path d="M12.3238 7.78581H9.04004V4.50977H12.3238V7.78581Z" fill="#58BCAF"/>
<path d="M7.80329 7.78581H4.51953V4.50977H7.80329V7.78581Z" fill="#58BCAF"/>
<path d="M3.28376 7.78581H0V4.50977H3.28376V7.78581Z" fill="#58BCAF"/>
<path d="M16.8433 3.27604H13.5596V0H16.8433V3.27604Z" fill="#4E4E4E"/>
<path d="M12.3238 3.27604H9.04004V0H12.3238V3.27604Z" fill="#58BCAF"/>
<path d="M7.80329 3.27604H4.51953V0H7.80329V3.27604Z" fill="#58BCAF"/>
<path d="M112.942 12.2947V32.7796C112.942 34.8223 111.706 36.8842 109.253 36.8842H98.3585V31.9702H105.139C106.162 31.9702 106.375 31.5655 106.375 30.7369V29.3108H100.831C98.3585 29.3108 97.1416 27.2681 97.1416 25.2061V12.2947H103.709V23.9535C103.709 24.9749 104.115 25.1868 104.945 25.1868H106.375V12.2754H112.942V12.2947Z" fill="black"/>
<path d="M82.1328 12.2949C79.6603 12.2949 78.4434 14.3376 78.4434 16.3996V36.8652H85.0109V26.6324H87.6765V36.8652H94.244V12.2949H82.1328ZM87.6765 22.5277H85.0109V17.6137C85.0109 16.5923 85.4165 16.3803 86.2471 16.3803H87.6765V22.5277Z" fill="black"/>
<path d="M75.5653 28.6749V36.865H68.9978V26.6322H67.5684C66.7378 26.6322 66.3322 26.8441 66.3322 27.8655V36.865H59.7646V28.6749C59.7646 26.6322 60.7884 24.7822 62.4303 24.5702C60.7884 24.3775 59.7646 22.5275 59.7646 20.4848V12.2947H66.3322V22.5275H67.7616C68.5922 22.5275 68.9978 22.3155 68.9978 21.2941V12.2754H75.5653V20.4655C75.5653 22.5082 74.5416 24.3582 72.8997 24.5509C74.5416 24.7822 75.5653 26.6322 75.5653 28.6749Z" fill="black"/>
<path d="M52.1542 22.5277H56.2493V26.6324H52.1542V31.9512L56.8674 31.9704V36.8652H45.5674V12.2949H56.8674V17.209H52.1542V22.5277Z" fill="black"/>
<path d="M39.0188 12.2951H27.7188V36.8654H34.2863V30.3133H39.0188C41.4912 30.3133 42.7082 28.2706 42.7082 26.2086V16.3805C42.7082 14.3378 41.4719 12.2758 39.0188 12.2951ZM36.9519 24.9945C36.9519 26.0159 36.5463 26.2279 35.7157 26.2279H34.2863V16.3997H35.735C36.5656 16.3997 36.9712 16.6117 36.9712 17.6331L36.9519 24.9945Z" fill="black"/>
</g>
<defs>
<clipPath id="clip0_356_5149">
<rect width="113" height="37" fill="white"/>
</clipPath>
</defs>
</svg>
