<svg xmlns="http://www.w3.org/2000/svg" width="40" height="41" fill="none" viewBox="0 0 40 41"><path fill="#268ceb" d="M22.5 29.293H20v-2.5a3.754 3.754 0 0 0-3.75-3.75h-5a3.754 3.754 0 0 0-3.75 3.75v2.5H5v-2.5a6.26 6.26 0 0 1 6.25-6.25h5a6.26 6.26 0 0 1 6.25 6.25Zm-8.75-21.25A3.75 3.75 0 1 1 13.750025955693387 15.543 3.75 3.75 0 0 1 13.75 8.043m0-2.5A6.25 6.25 0 1 0 13.750015442480612 18.043 6.25 6.25 0 0 0 13.75 5.543M2.5 33.043h35v2.5h-35Zm31.629-22.5a3.33 3.33 0 0 0-2.385 1.008l-.494.505-.494-.507a3.326 3.326 0 0 0-4.77 0 3.5 3.5 0 0 0 0 4.87l5.264 5.374 5.263-5.372a3.5 3.5 0 0 0 0-4.87 3.33 3.33 0 0 0-2.383-1.008Z"/></svg>