<svg xmlns="http://www.w3.org/2000/svg" width="24" height="24" fill="none" viewBox="0 0 24 24"><path fill="#268ceb" d="m21.84 8.56-.09-.36a5 5 0 0 0-.47-1 4.75 4.75 0 0 0-1.82-1.74l-5.25-2.84a4.8 4.8 0 0 0-4.51 0L4.45 5.46A4.75 4.75 0 0 0 2.63 7.2a4.3 4.3 0 0 0-.46 1v.14A4.6 4.6 0 0 0 2 9.57v7.62a4.76 4.76 0 0 0 4.75 4.75h10.5A4.75 4.75 0 0 0 22 17.19V9.56a4.8 4.8 0 0 0-.16-1m-8.26 3.35a3.3 3.3 0 0 1-3.25 0L3.8 8.13q.045-.114.11-.22a3.25 3.25 0 0 1 1.25-1.19l5.25-2.84a3.2 3.2 0 0 1 1.54-.39 3.24 3.24 0 0 1 1.55.39l5.25 2.84a3.22 3.22 0 0 1 1.4 1.5Z"/></svg>