<svg xmlns="http://www.w3.org/2000/svg" width="24" height="24" viewBox="0 0 24 24" fill="none">
<path d="M21.84 8.56077L21.75 8.20077C21.6308 7.8511 21.4731 7.51572 21.28 7.20077C20.8409 6.46761 20.2121 5.86649 19.46 5.46077L14.21 2.62077C13.5158 2.25133 12.7414 2.05811 11.955 2.05811C11.1686 2.05811 10.3942 2.25133 9.7 2.62077L4.45 5.46077C3.69785 5.86649 3.0691 6.46761 2.63 7.20077C2.43446 7.51303 2.27986 7.84911 2.17 8.20077V8.34077C2.058 8.74121 2.00082 9.15498 2 9.57077V17.1908C2.00264 18.4497 2.50394 19.6564 3.39416 20.5466C4.28439 21.4368 5.49103 21.9381 6.75 21.9408H17.25C17.8738 21.9408 18.4915 21.8179 19.0677 21.5792C19.644 21.3405 20.1677 20.9906 20.6088 20.5495C21.0498 20.1085 21.3997 19.5848 21.6384 19.0085C21.8771 18.4322 22 17.8146 22 17.1908V9.56077C21.9821 9.22273 21.9284 8.88753 21.84 8.56077ZM13.58 11.9108C13.0843 12.1912 12.5245 12.3386 11.955 12.3386C11.3855 12.3386 10.8257 12.1912 10.33 11.9108L3.8 8.13077C3.83 8.05411 3.86667 7.98077 3.91 7.91077C4.21181 7.4087 4.6437 6.99754 5.16 6.72077L10.41 3.88077C10.8824 3.6234 11.412 3.48926 11.95 3.49077C12.4911 3.4893 13.024 3.62338 13.5 3.88077L18.75 6.72077C19.3677 7.05474 19.8594 7.58149 20.15 8.22077L13.58 11.9108Z" fill="#268CEB"/>
</svg>