<svg xmlns="http://www.w3.org/2000/svg" width="40" height="40" viewBox="0 0 40 40" fill="none">
<path fill-rule="evenodd" clip-rule="evenodd" d="M15.9869 5.33348C15.7238 5.56957 15.4485 5.79155 15.1619 5.99848C14.6652 6.33182 14.1069 6.56182 13.5202 6.67848C13.2652 6.72848 12.9986 6.75015 12.4669 6.79182C11.1319 6.89848 10.4636 6.95182 9.9069 7.14848C9.27022 7.37289 8.69195 7.73717 8.2146 8.21452C7.73725 8.69186 7.37298 9.27014 7.14857 9.90682C6.9519 10.4635 6.89857 11.1318 6.7919 12.4668C6.77276 12.8197 6.73493 13.1713 6.67857 13.5202C6.5619 14.1068 6.3319 14.6652 5.99857 15.1618C5.85357 15.3785 5.68023 15.5818 5.33357 15.9868C4.46523 17.0068 4.03023 17.5168 3.77523 18.0501C3.1869 19.2835 3.1869 20.7168 3.77523 21.9502C4.03023 22.4835 4.46523 22.9935 5.33357 24.0135C5.68023 24.4185 5.85357 24.6218 5.99857 24.8385C6.3319 25.3352 6.5619 25.8935 6.67857 26.4801C6.72857 26.7351 6.75023 27.0018 6.7919 27.5335C6.89857 28.8685 6.9519 29.5368 7.14857 30.0935C7.37298 30.7302 7.73725 31.3084 8.2146 31.7858C8.69195 32.2631 9.27022 32.6274 9.9069 32.8518C10.4636 33.0485 11.1319 33.1018 12.4669 33.2085C12.9986 33.2501 13.2652 33.2718 13.5202 33.3218C14.1069 33.4385 14.6652 33.6701 15.1619 34.0018C15.3786 34.1468 15.5819 34.3201 15.9869 34.6668C17.0069 35.5351 17.5169 35.9702 18.0502 36.2252C19.2836 36.8135 20.7169 36.8135 21.9502 36.2252C22.4836 35.9702 22.9936 35.5351 24.0136 34.6668C24.4186 34.3201 24.6219 34.1468 24.8386 34.0018C25.3352 33.6685 25.8936 33.4385 26.4802 33.3218C26.7352 33.2718 27.0019 33.2501 27.5336 33.2085C28.8686 33.1018 29.5369 33.0485 30.0936 32.8518C30.7302 32.6274 31.3085 32.2631 31.7859 31.7858C32.2632 31.3084 32.6275 30.7302 32.8519 30.0935C33.0486 29.5368 33.1019 28.8685 33.2086 27.5335C33.2502 27.0018 33.2719 26.7351 33.3219 26.4801C33.4386 25.8935 33.6702 25.3352 34.0019 24.8385C34.1469 24.6218 34.3202 24.4185 34.6669 24.0135C35.5352 22.9935 35.9702 22.4835 36.2252 21.9502C36.8136 20.7168 36.8136 19.2835 36.2252 18.0501C35.9702 17.5168 35.5352 17.0068 34.6669 15.9868C34.4308 15.7238 34.2088 15.4484 34.0019 15.1618C33.6684 14.6652 33.4372 14.1071 33.3219 13.5202C33.2655 13.1713 33.2277 12.8197 33.2086 12.4668C33.1019 11.1318 33.0486 10.4635 32.8519 9.90682C32.6275 9.27014 32.2632 8.69186 31.7859 8.21452C31.3085 7.73717 30.7302 7.37289 30.0936 7.14848C29.5369 6.95182 28.8686 6.89848 27.5336 6.79182C27.1807 6.77268 26.8291 6.73485 26.4802 6.67848C25.8933 6.56318 25.3352 6.33201 24.8386 5.99848C24.552 5.79155 24.2766 5.56957 24.0136 5.33348C22.9936 4.46515 22.4836 4.03015 21.9502 3.77515C21.3415 3.48377 20.6751 3.33252 20.0002 3.33252C19.3253 3.33252 18.659 3.48377 18.0502 3.77515C17.5169 4.03015 17.0069 4.46515 15.9869 5.33348ZM27.2886 16.4385C27.5241 16.1807 27.6512 15.8419 27.6433 15.4928C27.6354 15.1437 27.4932 14.811 27.2463 14.5641C26.9994 14.3171 26.6667 14.1749 26.3176 14.1671C25.9684 14.1592 25.6297 14.2863 25.3719 14.5218L17.2886 22.6051L14.6286 19.9468C14.3707 19.7113 14.032 19.5842 13.6829 19.5921C13.3338 19.5999 13.0011 19.7421 12.7542 19.9891C12.5072 20.236 12.365 20.5687 12.3571 20.9178C12.3493 21.2669 12.4763 21.6057 12.7119 21.8635L16.3286 25.4802C16.5829 25.734 16.9276 25.8765 17.2869 25.8765C17.6462 25.8765 17.9909 25.734 18.2452 25.4802L27.2886 16.4385Z" fill="#268CEB"/>
</svg>