<svg xmlns="http://www.w3.org/2000/svg" width="40" height="40" fill="none" viewBox="0 0 40 40"><path fill="#268ceb" fill-rule="evenodd" d="M15.987 5.333q-.395.356-.825.665a4.5 4.5 0 0 1-1.642.68c-.255.05-.521.072-1.053.114-1.335.106-2.003.16-2.56.356a4.52 4.52 0 0 0-2.758 2.758c-.197.557-.25 1.226-.357 2.56q-.03.53-.113 1.054a4.5 4.5 0 0 1-.68 1.642c-.145.216-.319.42-.665.825-.869 1.02-1.304 1.53-1.559 2.063a4.53 4.53 0 0 0 0 3.9c.255.534.69 1.044 1.559 2.064.346.405.52.608.665.825a4.5 4.5 0 0 1 .68 1.642c.05.254.071.52.113 1.052.107 1.335.16 2.004.357 2.56a4.52 4.52 0 0 0 2.758 2.758c.557.197 1.225.25 2.56.358.532.041.798.063 1.053.113a4.6 4.6 0 0 1 1.642.68c.217.145.42.318.825.665 1.02.868 1.53 1.303 2.063 1.558a4.53 4.53 0 0 0 3.9 0c.534-.255 1.044-.69 2.064-1.558.405-.347.608-.52.825-.665a4.5 4.5 0 0 1 1.642-.68c.254-.05.52-.072 1.053-.114 1.335-.106 2.003-.16 2.56-.356a4.52 4.52 0 0 0 2.758-2.758c.197-.557.25-1.226.357-2.56.041-.532.063-.799.113-1.054a4.6 4.6 0 0 1 .68-1.642c.145-.216.318-.42.665-.825.868-1.02 1.303-1.53 1.558-2.063a4.53 4.53 0 0 0 0-3.9c-.255-.533-.69-1.043-1.558-2.063a10 10 0 0 1-.665-.825 4.5 4.5 0 0 1-.68-1.642 10 10 0 0 1-.113-1.053c-.107-1.335-.16-2.004-.357-2.56a4.52 4.52 0 0 0-2.758-2.758c-.557-.197-1.225-.25-2.56-.357a10 10 0 0 1-1.053-.113 4.5 4.5 0 0 1-1.642-.68 10 10 0 0 1-.825-.665c-1.02-.869-1.53-1.304-2.064-1.559a4.52 4.52 0 0 0-3.9 0c-.533.255-1.043.69-2.063 1.558M27.289 16.44a1.357 1.357 0 0 0-1.917-1.917l-8.083 8.083-2.66-2.658a1.357 1.357 0 0 0-1.917 1.917l3.617 3.616a1.357 1.357 0 0 0 1.917 0Z" clip-rule="evenodd"/></svg>