<svg xmlns="http://www.w3.org/2000/svg" width="24" height="24" viewBox="0 0 24 24" fill="none">
<path fill-rule="evenodd" clip-rule="evenodd" d="M8.90049 3.10039H15.0997V2H16.8997V3.10039H18.9997C19.7687 3.10039 20.5067 3.40522 21.0505 3.94883C21.5943 4.49259 21.9 5.23062 21.9001 5.99961V19.0004C21.9 19.7694 21.5943 20.5074 21.0505 21.0512C20.5067 21.5948 19.7687 21.8996 18.9997 21.8996H5.00049C4.23154 21.8996 3.49353 21.5948 2.94971 21.0512C2.40594 20.5074 2.1002 19.7694 2.1001 19.0004V5.99961C2.1002 5.23062 2.40594 4.49259 2.94971 3.94883C3.49353 3.40522 4.23155 3.10039 5.00049 3.10039H7.10049V2H8.90049V3.10039ZM3.9001 19.0004C3.9002 19.2919 4.01629 19.5712 4.22236 19.7773C4.42865 19.9836 4.70875 20.0996 5.00049 20.0996H18.9997C19.2914 20.0996 19.5715 19.9836 19.7778 19.7773C19.9839 19.5712 20.1 19.2919 20.1001 19.0004V10.9004H3.9001V19.0004ZM5.00049 4.90039C4.70875 4.90039 4.42865 5.01637 4.22236 5.22266C4.01629 5.42884 3.9002 5.7081 3.9001 5.99961V9.10039H20.1001V5.99961C20.1 5.70811 19.9839 5.42884 19.7778 5.22266C19.5715 5.01637 19.2914 4.90039 18.9997 4.90039H16.8997V5.99961H15.0997V4.90039H8.90049V5.99961H7.10049V4.90039H5.00049Z" fill="#268CEB"/>
</svg>