<svg xmlns="http://www.w3.org/2000/svg" width="50" height="50" viewBox="0 0 50 50" fill="none">
<rect width="48" height="48" rx="24" fill="#268CEB"/>
<path d="M30.5 13.5859L34.914 17.9999L33.5 19.4139L31.5 17.4139V30.5859L33.5 28.5859L34.914 29.9999L30.5 34.4139L26.086 29.9999L27.5 28.5859L29.5 30.5859V17.4139L27.5 19.4139L26.086 17.9999L30.5 13.5859ZM14 13.9999H24V33.9999H14V13.9999ZM16 15.9999V31.9999H22V15.9999H16Z" fill="white"/>
<path fill-rule="evenodd" clip-rule="evenodd" d="M40 32C44.4153 32 48 35.5847 48 40C48 44.4153 44.4153 48 40 48C35.5847 48 32 44.4153 32 40C32 35.5847 35.5847 32 40 32Z" fill="white"/>
<path fill-rule="evenodd" clip-rule="evenodd" d="M36.9185 41.001L38.6441 42.7448C38.8061 42.9086 39.0252 43.0002 39.2545 43.0002C39.4831 43.0002 39.7022 42.9086 39.8642 42.7448L43.7468 38.8212C44.0835 38.4809 44.0835 37.929 43.7468 37.5887C43.4101 37.2484 42.8634 37.2484 42.5267 37.5887L39.2539 40.8955L38.1387 39.768C37.802 39.4277 37.2552 39.4277 36.9185 39.768C36.5818 40.1082 36.5818 40.6608 36.9185 41.001Z" fill="#2BB109"/>
</svg>