<svg xmlns="http://www.w3.org/2000/svg" width="32" height="32" viewBox="0 0 32 32" fill="none">
<path fill-rule="evenodd" clip-rule="evenodd" d="M16.0001 6.33301C14.5867 6.33301 13.4534 6.77034 10.7547 7.85034L7.00939 9.34634C5.98626 9.75559 4.93186 10.134 3.96405 10.6663C4.93583 11.1927 5.98532 11.5754 7.00939 11.985C9.79239 13.0976 12.963 14.9997 16.0001 14.9997C19.0372 14.9997 22.2076 13.0977 24.9907 11.985C26.0148 11.5754 27.0643 11.1927 28.0361 10.6663C27.0643 10.14 26.0148 9.7573 24.9907 9.34767L21.2454 7.85034C18.5467 6.77034 17.4134 6.33301 16.0001 6.33301ZM10.1654 5.93167C12.6681 4.93034 14.1614 4.33301 16.0001 4.33301C17.8387 4.33301 19.3321 4.93034 21.8347 5.93167L25.7934 7.51567C27.0667 8.02501 28.0974 8.43567 28.8054 8.80767C29.5333 9.18791 30.3334 9.75241 30.3334 10.6663C30.3334 11.582 29.533 12.1443 28.8041 12.525C28.0974 12.8957 27.0667 13.3077 25.7934 13.8183C22.7321 15.0422 19.3496 16.9997 16.0001 16.9997C12.6502 16.9997 9.26782 15.0419 6.20672 13.817C4.93339 13.3077 3.90272 12.897 3.19472 12.525C2.46325 12.1656 1.66672 11.5626 1.66672 10.6663C1.66672 9.75071 2.46711 9.18834 3.19605 8.80767C3.90272 8.43701 4.93339 8.02501 6.20672 7.51434L10.1654 5.93167ZM3.37072 15.285C3.40272 15.3117 3.45516 15.3535 3.52805 15.4103C3.67339 15.5223 3.89872 15.6877 4.20539 15.8863C4.81872 16.285 5.75339 16.8143 7.01072 17.3183C9.79372 18.4309 12.9644 20.333 16.0014 20.333C19.0385 20.333 22.209 18.431 24.9921 17.3183C25.972 16.9344 26.9117 16.4548 27.7974 15.8863C28.0966 15.6912 28.3859 15.4812 28.6641 15.257L28.6681 15.2543L28.6694 15.253C28.8673 15.078 29.1265 14.9885 29.3903 15.0039C29.654 15.0194 29.9009 15.1386 30.0771 15.3355C30.2532 15.5325 30.3443 15.7911 30.3303 16.0549C30.3164 16.3188 30.1986 16.5664 30.0027 16.7437H30.0001V16.7463C30.0001 16.7463 29.2577 17.3241 28.8854 17.565C27.8892 18.2017 26.8336 18.7403 25.7334 19.173C22.689 20.3912 19.3316 22.3317 16.0001 22.3317C12.6685 22.3317 9.31113 20.3912 6.26672 19.173C5.1669 18.7398 4.11173 18.2008 3.11605 17.5637C2.72691 17.3123 2.36401 17.0354 2.00272 16.7463L2.00139 16.7437C1.70312 16.4609 1.67146 16.1234 1.66762 16.0556C1.65262 15.7908 1.74342 15.5309 1.92005 15.333C2.09669 15.1352 2.34468 15.0156 2.60948 15.0006C2.88834 14.9848 3.16288 15.1031 3.37072 15.285ZM28.6654 20.5877L28.6681 20.5863C28.866 20.4113 29.1252 20.3218 29.3889 20.3373C29.6527 20.3527 29.8996 20.4719 30.0757 20.6689C30.2519 20.8658 30.3429 21.1244 30.329 21.3883C30.3161 21.6321 30.1805 21.9345 29.9907 22.0863C29.6438 22.3837 29.2694 22.6486 28.8854 22.897C27.8893 23.5347 26.8337 24.0741 25.7334 24.5077C22.689 25.7259 19.3316 27.6663 16.0001 27.6663C12.6682 27.6663 9.31097 25.7255 6.26672 24.5063C5.1669 24.0731 4.11173 23.5341 3.11605 22.897C2.7605 22.6673 2.41736 22.419 2.08805 22.153C1.85588 21.9525 1.68918 21.7067 1.67244 21.3896C1.65851 21.1258 1.74956 20.8671 1.92571 20.6702C2.10185 20.4733 2.34877 20.3541 2.61252 20.3386C2.87628 20.3231 3.13544 20.4127 3.33339 20.5877L3.33739 20.5903C3.60544 20.8249 3.90592 21.0265 4.20405 21.2197C4.81739 21.6183 5.75205 22.1477 7.00939 22.6517C9.79239 23.7643 12.963 25.6663 16.0001 25.6663C19.0372 25.6663 22.2076 23.7643 24.9907 22.6517C25.9707 22.2678 26.9103 21.7881 27.7961 21.2197C28.0953 21.0245 28.3846 20.8145 28.6627 20.5903L28.6654 20.5877Z" fill="#268CEB"/>
</svg>