<svg xmlns="http://www.w3.org/2000/svg" width="24" height="24" fill="none" viewBox="0 0 24 24"><g fill-rule="evenodd" clip-path="url(#clip0_359_4894)" clip-rule="evenodd"><path fill="#fff" d="M12 0c6.623 0 12 5.377 12 12s-5.377 12-12 12S0 18.623 0 12 5.377 0 12 0"/><path fill="#268ceb" d="m7.379 13.501 2.588 2.616a1.287 1.287 0 0 0 1.83 0l5.824-5.886a1.317 1.317 0 0 0 0-1.849 1.285 1.285 0 0 0-1.83 0l-4.91 4.961-1.672-1.691a1.285 1.285 0 0 0-1.83 0 1.32 1.32 0 0 0 0 1.85"/></g><defs><clipPath id="clip0_359_4894"><path fill="#fff" d="M0 0h24v24H0Z"/></clipPath></defs></svg>