<svg xmlns="http://www.w3.org/2000/svg" width="32" height="32" fill="none" viewBox="0 0 32 32"><path fill="#268ceb" d="M2 22h28v2H2Zm0 4h28v2H2Zm22-16A2 2 0 1 0 23.999910221134535 14 2 2 0 0 0 24 10m-8 6A4 4 0 1 1 16.000088031082043 8 4 4 0 0 1 16 16m0-6A2 2 0 1 0 15.999910221134535 14 2 2 0 0 0 16 10m-8 0A2 2 0 1 0 7.999967197827711 14 2 2 0 0 0 8 10"/><path fill="#268ceb" d="M28 20H4a2.005 2.005 0 0 1-2-2V6a2.005 2.005 0 0 1 2-2h24a2.005 2.005 0 0 1 2 2v12a2.003 2.003 0 0 1-2 2m0-14H4v12h24Z"/></svg>