<svg xmlns="http://www.w3.org/2000/svg" width="24" height="24" viewBox="0 0 24 24" fill="none">
<path d="M16.6396 12.1064C16.9596 12.1384 17.2608 12.2801 17.4903 12.5095C17.7527 12.772 17.9004 13.1286 17.9005 13.4998C17.9004 13.8707 17.7526 14.2264 17.4903 14.4888C17.228 14.7511 16.8722 14.8987 16.5013 14.899C16.1301 14.899 15.7736 14.7512 15.511 14.4888C15.2815 14.2592 15.1398 13.9583 15.1079 13.638L15.1009 13.4998L15.1079 13.3615C15.1397 13.0409 15.2812 12.7393 15.511 12.5095C15.7736 12.2472 16.1301 12.0994 16.5013 12.0994L16.6396 12.1064Z" fill="#268CEB"/>
<path fill-rule="evenodd" clip-rule="evenodd" d="M15.2532 2.80054C15.6825 2.68616 16.1324 2.67253 16.5681 2.75952C17.0038 2.84663 17.4145 3.03258 17.7669 3.30327C18.1192 3.5739 18.4048 3.92206 18.6013 4.32046C18.7978 4.71903 18.9 5.15813 18.9001 5.60249V6.09937H18.9997C19.7688 6.09937 20.5066 6.40517 21.0505 6.94898C21.5943 7.4928 21.9001 8.23069 21.9001 8.99976V17.9998C21.9 18.7687 21.5942 19.5068 21.0505 20.0505C20.5067 20.5941 19.7687 20.899 18.9997 20.899H5.00049C4.23154 20.899 3.49352 20.5941 2.94971 20.0505C2.40599 19.5068 2.1002 18.7687 2.1001 17.9998V8.53687C2.1 7.89786 2.31085 7.27646 2.7001 6.76968C3.08941 6.26297 3.63541 5.89837 4.25283 5.73374L15.2532 2.80054ZM5.00049 7.89937C4.70879 7.89937 4.42865 8.01539 4.22236 8.22163C4.01611 8.42789 3.90014 8.70808 3.9001 8.99976V17.9998C3.9002 18.2912 4.01634 18.5705 4.22236 18.7767C4.42865 18.983 4.70875 19.099 5.00049 19.099H18.9997C19.2914 19.099 19.5715 18.983 19.7778 18.7767C19.9839 18.5705 20.1 18.2912 20.1001 17.9998V8.99976C20.1001 8.70808 19.9841 8.42789 19.7778 8.22163C19.5716 8.01539 19.2914 7.89937 18.9997 7.89937H5.00049ZM16.2153 4.52437C16.0503 4.49145 15.8799 4.49749 15.7173 4.54077L9.86963 6.09937H17.1001V5.60249C17.1 5.43423 17.0608 5.26828 16.9864 5.11734C16.9119 4.96619 16.8037 4.83328 16.67 4.73062C16.5364 4.62807 16.3805 4.55738 16.2153 4.52437Z" fill="#268CEB"/>
</svg>