<svg xmlns="http://www.w3.org/2000/svg" width="32" height="32" viewBox="0 0 32 32" fill="none">
<path d="M27.167 16.89L21.72 13L27.167 9.109L29.684 9.948L30.316 8.051L28 7.279V5H26V7.485L21 11.057V5.367L23.555 3.664L22.445 2L20 3.63L17.555 2L16.445 3.664L19 5.367V11.057L16 8.914V11.372L18.28 13L16 14.628V17.086L19 14.943V21.703L22.445 24L23.555 22.336L21 20.633V14.943L26 18.515V21H28V18.721L30.316 17.948L29.684 16.051L27.167 16.89ZM12 23C12 23.7956 11.6839 24.5587 11.1213 25.1213C10.5587 25.6839 9.79565 26 9 26C8.20435 26 7.44129 25.6839 6.87868 25.1213C6.31607 24.5587 6 23.7956 6 23H12Z" fill="#268CEB"/>
<path d="M8.99989 30C7.62187 30.0016 6.2741 29.5959 5.12583 28.8341C3.97756 28.0722 3.07999 26.9881 2.54581 25.7178C2.01163 24.4475 1.86466 23.0477 2.12336 21.6942C2.38206 20.3407 3.0349 19.0937 3.99989 18.11V7C3.99989 5.67392 4.52668 4.40215 5.46436 3.46447C6.40204 2.52678 7.67381 2 8.99989 2C10.326 2 11.5977 2.52678 12.5354 3.46447C13.4731 4.40215 13.9999 5.67392 13.9999 7V18.11C14.9649 19.0937 15.6177 20.3407 15.8764 21.6942C16.1351 23.0477 15.9882 24.4475 15.454 25.7178C14.9198 26.9881 14.0222 28.0722 12.874 28.8341C11.7257 29.5959 10.3779 30.0016 8.99989 30ZM8.99989 4C8.20449 4.00079 7.44189 4.31712 6.87945 4.87956C6.31701 5.44199 6.00069 6.20459 5.99989 7V18.983L5.66789 19.282C4.91277 19.9569 4.38041 20.8452 4.14127 21.8294C3.90214 22.8135 3.9675 23.8471 4.32871 24.7932C4.68992 25.7394 5.32995 26.5536 6.16408 27.128C6.99821 27.7024 7.98712 28.01 8.99989 28.01C10.0127 28.01 11.0016 27.7024 11.8357 27.128C12.6698 26.5536 13.3099 25.7394 13.6711 24.7932C14.0323 23.8471 14.0976 22.8135 13.8585 21.8294C13.6194 20.8452 13.087 19.9569 12.3319 19.282L11.9999 18.983V7C11.9991 6.20459 11.6828 5.44199 11.1203 4.87956C10.5579 4.31712 9.7953 4.00079 8.99989 4Z" fill="#268CEB"/>
</svg>