<svg xmlns="http://www.w3.org/2000/svg" width="32" height="32" fill="none" viewBox="0 0 32 32"><path fill="#268ceb" fill-rule="evenodd" d="M16 6.333c-1.413 0-2.547.437-5.245 1.517L7.009 9.346c-1.023.41-2.077.788-3.045 1.32.972.527 2.021.91 3.045 1.319C9.792 13.098 12.963 15 16 15s6.208-1.902 8.99-3.015c1.025-.41 2.074-.792 3.046-1.319-.972-.526-2.021-.909-3.045-1.318L21.245 7.85C18.547 6.77 17.413 6.333 16 6.333m-5.835-.401C12.668 4.93 14.161 4.333 16 4.333s3.332.597 5.835 1.599l3.958 1.584c1.274.509 2.304.92 3.012 1.292.728.38 1.528.944 1.528 1.858 0 .916-.8 1.478-1.529 1.859-.707.37-1.737.783-3.01 1.293C22.731 15.042 19.35 17 16 17s-6.732-1.958-9.793-3.183c-1.274-.51-2.304-.92-3.012-1.292-.732-.36-1.528-.962-1.528-1.859 0-.915.8-1.478 1.529-1.858.707-.371 1.737-.783 3.01-1.294Zm-6.794 9.353q.048.04.157.125c.145.112.37.278.677.476.614.399 1.548.928 2.806 1.432 2.783 1.113 5.953 3.015 8.99 3.015s6.208-1.902 8.991-3.015c.98-.384 1.92-.863 2.805-1.432q.45-.293.867-.629l.004-.003.001-.001a1 1 0 0 1 1.333 1.49H30v.003c.001 0-.741.578-1.114.819a18.3 18.3 0 0 1-3.152 1.608c-3.044 1.218-6.401 3.159-9.733 3.159s-6.689-1.94-9.733-3.159a18.3 18.3 0 0 1-3.15-1.61c-.39-.25-.753-.528-1.114-.817L2 16.744a1.07 1.07 0 0 1-.334-.688A1 1 0 0 1 2.61 15c.28-.016.554.102.762.284m25.294 5.303.003-.002a1 1 0 0 1 1.66.802c-.012.244-.148.546-.337.698-.347.298-.722.563-1.106.811a18.3 18.3 0 0 1-3.152 1.61c-3.044 1.219-6.401 3.16-9.733 3.16s-6.689-1.942-9.733-3.16a18.3 18.3 0 0 1-3.15-1.61q-.535-.345-1.029-.744c-.232-.2-.399-.446-.416-.763a1 1 0 0 1 1.661-.802l.004.002c.268.235.569.436.867.63a16.3 16.3 0 0 0 2.805 1.432c2.783 1.112 5.954 3.014 8.991 3.014s6.208-1.902 8.99-3.014c.98-.384 1.92-.864 2.806-1.432q.45-.293.867-.63Z" clip-rule="evenodd"/></svg>