<svg xmlns="http://www.w3.org/2000/svg" width="32" height="32" fill="none" viewBox="0 0 32 32"><path fill="#268ceb" d="M23 27.59 20.41 25 19 26.41l4 4 8-8L29.59 21ZM16 23l-2.139-1.013A5.02 5.02 0 0 1 11 17.467V11h10v6.468a5.02 5.02 0 0 1-2.861 4.52Zm-3-10v4.468a3.01 3.01 0 0 0 1.717 2.71l1.283.608 1.283-.607A3.01 3.01 0 0 0 19 17.468V13Zm-8.88 4.656A2 2 0 1 0 1 16c0 .789.46 1.464 1.124 1.79a13.95 13.95 0 0 0 9.569 11.535l.614-1.904a11.95 11.95 0 0 1-8.187-9.765m25.757-3.446a13.95 13.95 0 0 0-9.569-11.535l-.614 1.904a11.95 11.95 0 0 1 8.186 9.765 2 2 0 1 0 2.816.6 2 2 0 0 0-.819-.734M16 1c-.789 0-1.464.46-1.79 1.124a13.95 13.95 0 0 0-11.535 9.568l1.904.616a11.95 11.95 0 0 1 9.765-8.187A2 2 0 1 0 16 1"/></svg>