<svg xmlns="http://www.w3.org/2000/svg" width="32" height="32" viewBox="0 0 32 32" fill="none">
<path d="M23.449 1.92012C25.3744 2.17878 26.8944 2.72012 28.0877 3.91212C29.2811 5.10545 29.8211 6.62545 30.0797 8.55212C30.4141 11.0356 30.3331 13.5769 30.3331 16.0761C30.3331 19.1548 30.3331 21.5668 30.0797 23.4495C29.8211 25.3748 29.2797 26.8948 28.0877 28.0881C26.9824 29.1921 25.5971 29.7388 23.865 30.0188C22.1624 30.2948 20.021 30.3281 17.3344 30.3321C16.7897 30.3329 16.3338 29.8781 16.333 29.3335C16.3323 28.7888 16.787 28.3329 17.3317 28.3321C20.0517 28.3281 22.029 28.2908 23.545 28.0441C25.0344 27.8041 25.969 27.3775 26.673 26.6735C27.4331 25.9135 27.8691 24.8868 28.0984 23.1815C28.3304 21.4481 28.3331 19.1708 28.3331 16.0001C28.3331 12.8295 28.3304 10.5521 28.0971 8.81879C27.8691 7.11345 27.4331 6.08545 26.673 5.32545C25.913 4.56678 24.8864 4.13078 23.181 3.90145C21.4477 3.66945 19.1704 3.66678 15.9997 3.66678C12.829 3.66678 10.5504 3.66945 8.81704 3.90145C7.11304 4.13078 6.08504 4.56812 5.32637 5.32678C4.62104 6.03078 4.19571 6.96679 3.95571 8.45345C3.70904 9.97079 3.67171 11.9481 3.66637 14.6681C3.66601 15.2128 3.21037 15.6678 2.66571 15.6675C2.12104 15.6671 1.66601 15.2115 1.66637 14.6668C1.67171 11.9788 1.70637 9.83745 1.98104 8.13612C2.26104 6.40279 2.80771 5.01878 3.91171 3.91345C5.10504 2.72012 6.62504 2.18012 8.55171 1.92145C10.4784 1.66278 15.9997 1.6667 15.9997 1.6667C15.9997 1.6667 21.0783 1.60111 23.449 1.92012Z" fill="#268CEB"/>
<path d="M16.6664 9.33345C16.6664 8.78878 17.1217 8.33345 17.6664 8.33345H22.6664C22.9316 8.33345 23.1859 8.4388 23.3735 8.62634C23.561 8.81388 23.6664 9.06823 23.6664 9.33345V14.3334C23.6664 14.8781 23.211 15.3334 22.6664 15.3334C22.1217 15.3334 21.6664 14.8781 21.6664 14.3334V11.7468L16.7064 16.7068C16.3259 17.1151 15.6623 17.1268 15.2677 16.7322C14.873 16.3375 14.8847 15.674 15.293 15.2934L20.253 10.3334H17.6664C17.1217 10.3334 16.6664 9.87811 16.6664 9.33345Z" fill="#268CEB"/>
<path fill-rule="evenodd" clip-rule="evenodd" d="M4.94104 17.7734C4.10371 17.8854 3.34771 18.1334 2.74104 18.7414C2.13304 19.3481 1.88504 20.1041 1.77304 20.9414C1.66637 21.7334 1.66637 22.7321 1.66637 23.9308C1.66637 24.9706 1.63391 26.0257 1.77304 27.0588C1.88504 27.8961 2.13304 28.6521 2.73971 29.2588C3.34771 29.8668 4.10371 30.1148 4.93971 30.2268C5.97326 30.3657 7.02878 30.3334 8.06904 30.3334C9.26637 30.3334 10.2664 30.3334 11.0584 30.2268C11.8957 30.1148 12.6517 29.8668 13.2584 29.2588C13.8664 28.6521 14.1144 27.8961 14.2264 27.0588C14.3655 26.0257 14.333 24.9706 14.333 23.9308C14.333 22.7321 14.333 21.7334 14.2264 20.9414C14.1144 20.1041 13.8664 19.3481 13.2597 18.7414C12.6517 18.1334 11.8957 17.8854 11.0597 17.7734C10.2664 17.6668 9.26637 17.6668 8.06904 17.6668C7.02925 17.6668 5.9741 17.6343 4.94104 17.7734ZM4.15437 20.1548C4.32771 19.9814 4.59171 19.8388 5.20771 19.7548C5.85037 19.6694 6.71437 19.6668 7.99971 19.6668C9.28504 19.6668 10.149 19.6694 10.793 19.7548C11.4077 19.8388 11.6717 19.9814 11.845 20.1548C12.0184 20.3281 12.161 20.5921 12.245 21.2081C12.3304 21.8508 12.333 22.7148 12.333 24.0001C12.333 25.2854 12.3304 26.1494 12.2437 26.7934C12.161 27.4081 12.0184 27.6721 11.8437 27.8454C11.669 28.0188 11.4077 28.1614 10.793 28.2454C10.149 28.3308 9.28504 28.3334 7.99971 28.3334C6.71437 28.3334 5.85037 28.3308 5.20637 28.2441C4.59171 28.1614 4.32771 28.0188 4.15437 27.8441C3.98104 27.6694 3.83837 27.4081 3.75437 26.7934C3.66904 26.1494 3.66637 25.2854 3.66637 24.0001C3.66637 22.7148 3.66904 21.8508 3.75571 21.2068C3.83837 20.5921 3.98104 20.3281 4.15571 20.1548" fill="#268CEB"/>
</svg>