<svg xmlns="http://www.w3.org/2000/svg" width="32" height="32" fill="none" viewBox="0 0 32 32"><path fill="#268ceb" d="M23.449 1.92c1.925.259 3.445.8 4.639 1.992 1.193 1.193 1.733 2.713 1.992 4.64.334 2.484.253 5.025.253 7.524 0 3.079 0 5.49-.253 7.374-.259 1.925-.8 3.445-1.992 4.638-1.106 1.104-2.49 1.65-4.223 1.93-1.703.277-3.844.31-6.53.314-.545 0-1.001-.454-1.002-.999 0-.544.454-1 .999-1 2.72-.005 4.697-.042 6.213-.289 1.49-.24 2.424-.666 3.128-1.37.76-.76 1.196-1.787 1.425-3.492.232-1.734.235-4.011.235-7.182 0-3.17-.003-5.448-.236-7.181-.228-1.706-.664-2.734-1.424-3.494-.76-.758-1.787-1.194-3.492-1.424-1.733-.232-4.01-.234-7.181-.234s-5.45.002-7.183.234c-1.704.23-2.732.667-3.49 1.426-.706.704-1.131 1.64-1.371 3.126-.247 1.518-.284 3.495-.29 6.215 0 .545-.456 1-1 1-.545 0-1-.457-1-1.001.006-2.688.04-4.83.315-6.53.28-1.734.827-3.118 1.93-4.224C5.106 2.72 6.626 2.18 8.552 1.921 10.479 1.663 16 1.667 16 1.667s5.078-.066 7.449.253"/><path fill="#268ceb" d="M16.666 9.333c0-.544.456-1 1-1h5a1 1 0 0 1 1 1v5c0 .545-.455 1-1 1s-1-.455-1-1v-2.587l-4.96 4.96a1.01 1.01 0 0 1-1.439.025 1.01 1.01 0 0 1 .025-1.439l4.961-4.959h-2.587c-.544 0-1-.455-1-1"/><path fill="#268ceb" fill-rule="evenodd" d="M4.941 17.773c-.837.112-1.593.36-2.2.968-.608.607-.856 1.363-.968 2.2-.107.792-.107 1.791-.107 2.99 0 1.04-.032 2.095.107 3.128.112.837.36 1.593.967 2.2.608.608 1.364.856 2.2.968 1.033.139 2.089.106 3.129.106 1.197 0 2.197 0 2.99-.106.837-.112 1.593-.36 2.2-.968.607-.607.855-1.363.967-2.2.14-1.033.107-2.088.107-3.128 0-1.199 0-2.198-.107-2.99-.112-.837-.36-1.593-.966-2.2-.608-.608-1.364-.856-2.2-.968-.794-.106-1.794-.106-2.991-.106-1.04 0-2.095-.033-3.128.106m-.787 2.382c.174-.174.438-.316 1.054-.4.642-.086 1.506-.088 2.792-.088s2.149.002 2.793.088c.615.084.879.226 1.052.4.173.173.316.437.4 1.053.085.643.088 1.507.088 2.792s-.003 2.15-.09 2.793c-.082.615-.225.88-.4 1.052-.174.174-.435.316-1.05.4-.644.086-1.508.088-2.793.088s-2.15-.002-2.794-.089c-.614-.083-.878-.225-1.052-.4-.173-.175-.316-.436-.4-1.05-.085-.645-.088-1.509-.088-2.794s.003-2.15.09-2.793c.082-.615.225-.879.4-1.052" clip-rule="evenodd"/></svg>