<svg xmlns="http://www.w3.org/2000/svg" width="24" height="24" fill="none" viewBox="0 0 24 24"><path fill="#268ceb" d="M16.64 12.106a1.401 1.401 0 0 1 .85 2.382 1.4 1.4 0 0 1-2.382-.85L15.1 13.5l.007-.139A1.4 1.4 0 0 1 16.5 12.1Z"/><path fill="#268ceb" fill-rule="evenodd" d="M15.253 2.8A2.9 2.9 0 0 1 18.9 5.603V6.1h.1A2.9 2.9 0 0 1 21.9 9v9a2.9 2.9 0 0 1-2.9 2.9H5a2.9 2.9 0 0 1-2.9-2.9V8.537a2.9 2.9 0 0 1 2.153-2.803ZM5 7.9A1.1 1.1 0 0 0 3.9 9v9A1.1 1.1 0 0 0 5 19.1h14a1.1 1.1 0 0 0 1.1-1.1V9A1.1 1.1 0 0 0 19 7.9Zm11.215-3.376a1.1 1.1 0 0 0-.498.016L9.87 6.1h7.23v-.497a1.1 1.1 0 0 0-.885-1.078" clip-rule="evenodd"/></svg>