<svg xmlns="http://www.w3.org/2000/svg" width="50" height="50" fill="none" viewBox="0 0 50 50"><rect width="48" height="48" fill="#268ceb" rx="24"/><path fill="#fff" d="M30.5 13.586 34.914 18 33.5 19.414l-2-2v13.172l2-2L34.914 30 30.5 34.414 26.086 30l1.414-1.414 2 2V17.414l-2 2L26.086 18ZM14 14h10v20H14Zm2 2v16h6V16Z"/><path fill="#fff" fill-rule="evenodd" d="M40 32c4.415 0 8 3.585 8 8s-3.585 8-8 8-8-3.585-8-8 3.585-8 8-8" clip-rule="evenodd"/><path fill="#2bb109" fill-rule="evenodd" d="m36.919 41.001 1.725 1.744a.857.857 0 0 0 1.22 0l3.883-3.924a.88.88 0 0 0 0-1.232.857.857 0 0 0-1.22 0l-3.273 3.307-1.115-1.128a.857.857 0 0 0-1.22 0 .88.88 0 0 0 0 1.233" clip-rule="evenodd"/></svg>