<svg xmlns="http://www.w3.org/2000/svg" width="32" height="32" viewBox="0 0 32 32" fill="none">
<path d="M31.707 20.293L28.707 17.293C28.5195 17.1055 28.2652 17.0002 28 17.0002C27.7348 17.0002 27.4805 17.1055 27.293 17.293L18 26.586V31H22.414L31.707 21.707C31.8945 21.5195 31.9998 21.2652 31.9998 21C31.9998 20.7348 31.8945 20.4805 31.707 20.293ZM24.293 26.293L21.586 29H20V27.414L22.707 24.707L25 22.414L26.586 24L24.293 26.293ZM28 22.586L26.414 21L28 19.414L29.586 21L28 22.586ZM20 20V18H16V11H26V13H28V6C28 4.346 26.654 3 25 3H5C3.346 3 2 4.346 2 6V26C2 27.654 3.346 29 5 29H16V20H20ZM14 18H4V11H14V18ZM5 5H25C25.2652 5 25.5196 5.10536 25.7071 5.29289C25.8946 5.48043 26 5.73478 26 6V9H4V6C4 5.73478 4.10536 5.48043 4.29289 5.29289C4.48043 5.10536 4.73478 5 5 5ZM14 27H5C4.73478 27 4.48043 26.8946 4.29289 26.7071C4.10536 26.5196 4 26.2652 4 26V20H14V27Z" fill="#268CEB"/>
</svg>