<svg xmlns="http://www.w3.org/2000/svg" width="24" height="24" viewBox="0 0 24 24" fill="none">
<path fill-rule="evenodd" clip-rule="evenodd" d="M15.0762 5.39094C15.5557 5.34426 16.0397 5.40401 16.4932 5.56673C16.8902 5.7092 17.2552 5.92747 17.5684 6.20833L17.6992 6.33235L17.7041 6.33723C18.307 6.94974 18.6454 7.77469 18.6455 8.63411C18.6455 9.49482 18.3053 10.3202 17.7031 10.932L17.7021 10.9329C17.1313 11.5108 16.3648 11.8555 15.5537 11.8978C14.7428 11.9401 13.9452 11.6775 13.3174 11.1624C12.6896 10.6472 12.2769 9.9154 12.1602 9.11165C12.0437 8.30924 12.2309 7.49249 12.6846 6.82063C12.9527 6.42044 13.3053 6.08448 13.7188 5.83723C14.1324 5.58992 14.5965 5.43771 15.0762 5.39094ZM15.2695 7.38118C15.0842 7.39928 14.9049 7.45848 14.7451 7.55403C14.5855 7.64953 14.4493 7.77943 14.3457 7.93391L14.3428 7.93782C14.167 8.19748 14.0936 8.5142 14.1387 8.82454C14.1838 9.13482 14.3436 9.4176 14.5859 9.61653C14.8282 9.81527 15.1363 9.91599 15.4492 9.89973C15.7618 9.88342 16.0571 9.75097 16.2773 9.52864C16.5129 9.28936 16.6455 8.9676 16.6455 8.63411C16.6454 8.29963 16.513 7.97895 16.2783 7.74055C16.1478 7.61141 15.9903 7.51158 15.8174 7.44954C15.6421 7.38666 15.4549 7.36311 15.2695 7.38118Z" fill="#2BB109"/>
<path fill-rule="evenodd" clip-rule="evenodd" d="M13.0283 1.73274C14.3067 1.40704 15.6483 1.42414 16.918 1.78255C18.1136 2.12013 19.2057 2.74924 20.0967 3.61165C20.1432 3.64358 20.188 3.67959 20.2295 3.72005C21.495 4.95383 22.2852 6.59434 22.4619 8.35286C22.6386 10.1114 22.19 11.8763 21.1953 13.3372C20.2009 14.7978 18.7228 15.861 17.0215 16.3382C15.5476 16.7516 13.9884 16.7017 12.5518 16.2064L11.5469 17.2142C11.3199 17.4414 10.9968 17.5455 10.6797 17.4945L10.0684 17.3958L10.1689 18.0218C10.2195 18.3392 10.1136 18.6614 9.88574 18.888L8.21582 20.5491C7.9873 20.7763 7.6635 20.8797 7.3457 20.8265L6.75293 20.7269L6.85156 21.3421C6.89771 21.6312 6.81496 21.927 6.625 22.1497C6.43507 22.3722 6.15681 22.5002 5.86426 22.5003H2.5C1.94777 22.5003 1.50009 22.0525 1.5 21.5003V18.179C1.50008 17.9145 1.60521 17.6603 1.79199 17.473L7.78711 11.4603C7.29189 10.0224 7.24184 8.46189 7.6543 6.98665C8.00866 5.7157 8.6924 4.5605 9.63574 3.63801C10.5791 2.71556 11.7498 2.05856 13.0283 1.73274ZM16.375 3.70735C15.4438 3.44443 14.4592 3.43129 13.5215 3.67024C12.5839 3.90921 11.726 4.39219 11.0342 5.06868C10.3425 5.74514 9.84091 6.59182 9.58105 7.52376C9.23151 8.77346 9.33367 10.1073 9.86914 11.2894C10.0407 11.6681 9.9596 12.1141 9.66602 12.4085L3.5 18.5921V20.5003H4.69141L4.55859 19.6683C4.50779 19.3504 4.61327 19.0269 4.8418 18.8001C5.07037 18.5735 5.39446 18.4704 5.71191 18.5238L7.16992 18.7679L8.1123 17.8304L7.87598 16.347C7.82538 16.0303 7.92937 15.7085 8.15625 15.4818C8.38313 15.2551 8.70489 15.1516 9.02148 15.2025L10.4932 15.4388L11.6016 14.3284L11.7188 14.2279C12.0068 14.0172 12.3906 13.9736 12.7227 14.1243C13.9026 14.6599 15.2338 14.7624 16.4814 14.4124C17.7291 14.0624 18.8128 13.2824 19.542 12.2113C20.2721 11.1389 20.6013 9.84384 20.4717 8.55305C20.3482 7.32468 19.8165 6.17528 18.9648 5.28645C18.9159 5.25172 18.8692 5.21255 18.8262 5.16829C18.152 4.4743 17.3062 3.97029 16.375 3.70735Z" fill="#2BB109"/>
</svg>