<svg xmlns="http://www.w3.org/2000/svg" width="24" height="24" fill="none" viewBox="0 0 24 24"><path fill="#2bb109" fill-rule="evenodd" d="M15.076 5.39a3.26 3.26 0 0 1 2.492.817l.131.125.005.005a3.275 3.275 0 0 1-.001 4.595 3.26 3.26 0 0 1-4.385.23 3.26 3.26 0 0 1-.633-4.342 3.26 3.26 0 0 1 2.392-1.43m.194 1.991a1.26 1.26 0 0 0-.924.553l-.003.004a1.26 1.26 0 0 0 .243 1.679 1.26 1.26 0 0 0 1.691-.088 1.275 1.275 0 0 0 .001-1.788 1.26 1.26 0 0 0-1.009-.36" clip-rule="evenodd"/><path fill="#2bb109" fill-rule="evenodd" d="M13.028 1.733a7.5 7.5 0 0 1 7.068 1.879q.07.048.134.108a7.52 7.52 0 0 1 .966 9.617 7.5 7.5 0 0 1-8.644 2.87l-1.005 1.007c-.227.227-.55.332-.867.28l-.612-.098.1.626a1 1 0 0 1-.283.866l-1.67 1.661a1 1 0 0 1-.87.277l-.592-.1.099.616a1.002 1.002 0 0 1-.987 1.158H2.5a1 1 0 0 1-1-1V18.18a1 1 0 0 1 .292-.706l5.994-6.013a7.52 7.52 0 0 1 1.849-7.822 7.5 7.5 0 0 1 3.393-1.905m3.347 1.974a5.503 5.503 0 0 0-6.794 3.816 5.52 5.52 0 0 0 .288 3.766 1 1 0 0 1-.203 1.12L3.5 18.592V20.5h1.191l-.132-.832a1 1 0 0 1 1.153-1.144l1.458.244.942-.938-.236-1.483a1 1 0 0 1 1.146-1.145l1.471.237 1.109-1.11.117-.101a1 1 0 0 1 1.004-.104 5.5 5.5 0 0 0 6.82-1.913 5.52 5.52 0 0 0-.577-6.925 1 1 0 0 1-.139-.118 5.5 5.5 0 0 0-2.451-1.46" clip-rule="evenodd"/></svg>