<svg xmlns="http://www.w3.org/2000/svg" width="40" height="41" fill="none" viewBox="0 0 40 41"><path fill="#268ceb" d="M25 24.293h-2.5v-2.5h-5v2.5H15v-2.5a2.503 2.503 0 0 1 2.5-2.5h5a2.5 2.5 0 0 1 2.5 2.5Zm-5-6.25A3.75 3.75 0 1 1 20.00030025175649 10.542 3.75 3.75 0 0 1 20 18.043m0-5A1.25 1.25 0 1 0 20.000118683178382 15.544 1.25 1.25 0 0 0 20 13.043"/><path fill="#268ceb" d="M20 38.043 9.455 25.607a44 44 0 0 1-.435-.564 13.6 13.6 0 0 1-2.77-8.25 13.75 13.75 0 1 1 27.5 0 13.6 13.6 0 0 1-2.769 8.246l-.001.004s-.375.492-.431.559Zm-8.985-14.506c.002 0 .292.385.359.467L20 34.178l8.638-10.187.348-.458a11.13 11.13 0 0 0 2.264-6.74 11.25 11.25 0 1 0-22.5 0 11.13 11.13 0 0 0 2.265 6.744"/></svg>