<svg xmlns="http://www.w3.org/2000/svg" width="99" height="60" viewBox="0 0 99 60" fill="none">
<path fill-rule="evenodd" clip-rule="evenodd" d="M10.5879 30L30.0751 10.6042L49.5623 30L30.0751 49.3958L10.5879 30ZM17.5758 30L30.0751 42.4406L42.5744 30L30.0751 17.5594L17.5758 30Z" fill="#00A8F0"/>
<path d="M51.8828 39.834V49.67H53.7358V45.5205H56.2064V49.67H58.0593V39.834H56.2064V43.5225H53.7358V39.834H51.8828Z" fill="#292E97"/>
<path fill-rule="evenodd" clip-rule="evenodd" d="M59.777 39.834L59.0476 49.67H60.9056L61.0879 47.211H63.6064L63.7888 49.67H65.6468L64.9174 39.834H59.777ZM63.4583 45.2131L63.1961 41.6782H61.4982L61.2361 45.2131H63.4583Z" fill="#292E97"/>
<path fill-rule="evenodd" clip-rule="evenodd" d="M93.1302 39.834H98.2706L99 49.67H97.142L96.9597 47.211H94.4412L94.2588 49.67H92.4008L93.1302 39.834ZM96.5494 41.6782L96.8115 45.2131H94.5893L94.8515 41.6782H96.5494Z" fill="#292E97"/>
<path d="M92.0328 39.834H89.9779L88.2011 43.5225H87.089V39.834H85.236V49.67H87.089V45.5205H88.1306L90.1572 49.67H92.2175L89.7391 44.5956L92.0328 39.834Z" fill="#292E97"/>
<path d="M77.886 39.834V49.67H79.7389V49.6086H84.0007V47.7643H79.7389V45.4282H81.7772V43.584H79.7389V41.7397H84.0007V39.8955H79.7389V39.834H77.886Z" fill="#292E97"/>
<path fill-rule="evenodd" clip-rule="evenodd" d="M71.833 49.6086H76.2801V46.1544L75.173 44.752L76.2801 43.3496V39.8955L71.833 39.8955V39.834H69.98V49.67H71.833V49.6086ZM71.833 43.8299V41.7397H74.4271V42.7118L73.5445 43.8299H71.833ZM73.5445 45.6741H71.833V47.7643H74.4271V46.7923L73.5445 45.6741Z" fill="#292E97"/>
<path fill-rule="evenodd" clip-rule="evenodd" d="M51.6357 21.3906H61.5182V37.1283H51.6357V21.3906ZM54.6005 24.3414H58.5534V34.1775H54.6005V24.3414Z" fill="#00A8F0"/>
<path d="M74.6166 21.3906H71.3287L68.4858 27.2923H66.7065V21.3906H63.7417V37.1283H66.7065V30.489H68.373L71.6156 37.1283H74.9121L70.9467 29.0092L74.6166 21.3906Z" fill="#00A8F0"/>
<path fill-rule="evenodd" clip-rule="evenodd" d="M88.6591 21.3906H96.8837L98.0508 37.1283H95.078L94.7862 33.1939H90.7566L90.4648 37.1283H87.492L88.6591 21.3906ZM94.1297 24.3414L94.5491 29.9972H90.9936L91.4131 24.3414H94.1297Z" fill="#00A8F0"/>
<path d="M76.0948 21.3906V37.1283H79.0595V30.489H83.0125V37.1283H85.9772V21.3906H83.0125V27.2923H79.0595V21.3906H76.0948Z" fill="#00A8F0"/>
<path fill-rule="evenodd" clip-rule="evenodd" d="M29.3651 0L7.40336e-08 29.2273L0 30.7727L29.3651 60H30.7863L46.8002 44.0613L44.0374 41.3115H42.575L30.0757 53.7521L6.21164 30L30.0757 6.2479L42.575 18.6885H43.9762L46.7696 15.9083L30.7863 0H29.3651Z" fill="#292E97"/>
</svg>