<svg xmlns="http://www.w3.org/2000/svg" width="99" height="60" fill="none" viewBox="0 0 99 60"><path fill="#00a8f0" fill-rule="evenodd" d="m10.588 30 19.487-19.396L49.562 30 30.075 49.396Zm6.988 0 12.5 12.44L42.573 30 30.075 17.56Z" clip-rule="evenodd"/><path fill="#292e97" d="M51.883 39.834v9.836h1.853v-4.15h2.47v4.15h1.853v-9.836h-1.853v3.688h-2.47v-3.688Z"/><path fill="#292e97" fill-rule="evenodd" d="m59.777 39.834-.73 9.836h1.858l.183-2.459h2.519l.182 2.459h1.858l-.73-9.836Zm3.681 5.38-.262-3.536h-1.698l-.262 3.535ZM93.13 39.834h5.14L99 49.67h-1.858l-.182-2.459H94.44l-.182 2.459H92.4Zm3.42 1.844.261 3.535H94.59l.263-3.535Z" clip-rule="evenodd"/><path fill="#292e97" d="M92.033 39.834h-2.055L88.2 43.522H87.09v-3.688h-1.853v9.836h1.853v-4.15h1.042l2.026 4.15h2.06l-2.478-5.074ZM77.886 39.834v9.836h1.853v-.061H84v-1.844h-4.262v-2.336h2.038v-1.844H79.74V41.74H84v-1.844h-4.262v-.061Z"/><path fill="#292e97" fill-rule="evenodd" d="M71.833 49.609h4.447v-3.454l-1.107-1.403 1.107-1.402v-3.454h-4.447v-.061H69.98v9.836h1.853Zm0-5.78v-2.09h2.594v.972l-.883 1.119Zm1.712 1.845h-1.712v2.09h2.594v-.972Z" clip-rule="evenodd"/><path fill="#00a8f0" fill-rule="evenodd" d="M51.636 21.39h9.883v15.738h-9.883Zm2.964 2.951h3.953v9.836H54.6Z" clip-rule="evenodd"/><path fill="#00a8f0" d="M74.617 21.39h-3.288l-2.843 5.902h-1.78V21.39h-2.965v15.738h2.965v-6.64h1.666l3.244 6.64h3.296l-3.965-8.119Z"/><path fill="#00a8f0" fill-rule="evenodd" d="M88.66 21.39h8.225l1.166 15.738h-2.973l-.292-3.934h-4.03l-.291 3.934h-2.973Zm5.47 2.951.42 5.656h-3.555l.418-5.656Z" clip-rule="evenodd"/><path fill="#00a8f0" d="M76.095 21.39v15.738h2.965v-6.64h3.953v6.64h2.965V21.39h-2.965v5.902H79.06V21.39Z"/><path fill="#292e97" fill-rule="evenodd" d="M29.365 0 0 29.227v1.546L29.365 60h1.421L46.8 44.061l-2.763-2.75h-1.462l-12.5 12.441L6.213 30 30.076 6.248l12.499 12.44h1.401l2.794-2.78L30.786 0Z" clip-rule="evenodd"/></svg>