<svg xmlns="http://www.w3.org/2000/svg" width="40" height="41" viewBox="0 0 40 41" fill="none">
<path d="M2.5 28.043H37.5V30.543H2.5V28.043ZM2.5 33.043H37.5V35.543H2.5V33.043ZM30 13.043C29.5055 13.043 29.0222 13.1896 28.6111 13.4643C28.2 13.739 27.8795 14.1294 27.6903 14.5863C27.5011 15.0431 27.4516 15.5457 27.548 16.0307C27.6445 16.5157 27.8826 16.9611 28.2322 17.3107C28.5819 17.6604 29.0273 17.8985 29.5123 17.9949C29.9972 18.0914 30.4999 18.0419 30.9567 17.8527C31.4135 17.6635 31.804 17.343 32.0787 16.9319C32.3534 16.5208 32.5 16.0374 32.5 15.543C32.5 14.8799 32.2366 14.244 31.7678 13.7752C31.2989 13.3064 30.663 13.043 30 13.043ZM20 20.543C19.0111 20.543 18.0444 20.2497 17.2221 19.7003C16.3999 19.1509 15.759 18.37 15.3806 17.4564C15.0022 16.5428 14.9031 15.5374 15.0961 14.5675C15.289 13.5976 15.7652 12.7067 16.4645 12.0074C17.1637 11.3082 18.0546 10.832 19.0245 10.639C19.9945 10.4461 20.9998 10.5451 21.9134 10.9236C22.827 11.302 23.6079 11.9429 24.1573 12.7651C24.7068 13.5874 25 14.5541 25 15.543C24.9983 16.8685 24.471 18.1394 23.5337 19.0767C22.5964 20.014 21.3256 20.5413 20 20.543ZM20 13.043C19.5055 13.043 19.0222 13.1896 18.6111 13.4643C18.2 13.739 17.8795 14.1294 17.6903 14.5863C17.5011 15.0431 17.4516 15.5457 17.548 16.0307C17.6445 16.5157 17.8826 16.9611 18.2322 17.3107C18.5819 17.6604 19.0273 17.8985 19.5123 17.9949C19.9972 18.0914 20.4999 18.0419 20.9567 17.8527C21.4135 17.6635 21.804 17.343 22.0787 16.9319C22.3534 16.5208 22.5 16.0374 22.5 15.543C22.4993 14.8801 22.2357 14.2446 21.767 13.7759C21.2983 13.3072 20.6628 13.0436 20 13.043ZM10 13.043C9.50555 13.043 9.0222 13.1896 8.61107 13.4643C8.19995 13.739 7.87952 14.1294 7.6903 14.5863C7.50108 15.0431 7.45157 15.5457 7.54804 16.0307C7.6445 16.5157 7.8826 16.9611 8.23223 17.3107C8.58186 17.6604 9.02732 17.8985 9.51227 17.9949C9.99723 18.0914 10.4999 18.0419 10.9567 17.8527C11.4135 17.6635 11.804 17.343 12.0787 16.9319C12.3534 16.5208 12.5 16.0374 12.5 15.543C12.5 14.8799 12.2366 14.244 11.7678 13.7752C11.2989 13.3064 10.663 13.043 10 13.043Z" fill="#268CEB"/>
<path d="M35 25.543H5C4.33747 25.5413 3.70254 25.2774 3.23406 24.8089C2.76557 24.3404 2.50165 23.7055 2.5 23.043V8.04297C2.50165 7.38043 2.76557 6.74551 3.23406 6.27702C3.70254 5.80854 4.33747 5.54462 5 5.54297H35C35.6625 5.54462 36.2975 5.80854 36.7659 6.27702C37.2344 6.74551 37.4983 7.38043 37.5 8.04297V23.043C37.499 23.7057 37.2353 24.341 36.7667 24.8096C36.298 25.2783 35.6627 25.542 35 25.543ZM35 8.04297H5V23.043H35V8.04297Z" fill="#268CEB"/>
</svg>