<svg xmlns="http://www.w3.org/2000/svg" width="40" height="41" fill="none" viewBox="0 0 40 41"><path fill="#268ceb" d="M2.5 28.043h35v2.5h-35Zm0 5h35v2.5h-35Zm27.5-20a2.5 2.5 0 1 0-.0001770926705617626 5A2.5 2.5 0 0 0 30 13.043m-10 7.5a5 5 0 1 1 5-5 5.007 5.007 0 0 1-5 5m0-7.5a2.5 2.5 0 1 0-.0001770926705617626 5A2.5 2.5 0 0 0 20 13.043m-10 0a2.5 2.5 0 1 0-.000060985815832026447 5A2.5 2.5 0 0 0 10 13.043"/><path fill="#268ceb" d="M35 25.543H5a2.506 2.506 0 0 1-2.5-2.5v-15a2.506 2.506 0 0 1 2.5-2.5h30a2.506 2.506 0 0 1 2.5 2.5v15a2.504 2.504 0 0 1-2.5 2.5m0-17.5H5v15h30Z"/></svg>