<svg xmlns="http://www.w3.org/2000/svg" width="40" height="41" fill="none" viewBox="0 0 40 41"><g fill="#268ceb" clip-path="url(#clip0_337_7289)"><path d="M32.248 13.043a12.5 12.5 0 0 0-24.525.155 9.37 9.37 0 0 0 1.652 18.595H10v-2.5h-.625a6.87 6.87 0 0 1-.471-13.725l1.046-.072.113-1.04a9.991 9.991 0 0 1 19.608-1.412Z"/><path d="M35 15.543H22.5a2.5 2.5 0 0 0-2.5 2.5v5h-5a2.5 2.5 0 0 0-2.5 2.5v12.5h25v-20a2.503 2.503 0 0 0-2.5-2.5m-20 20v-10h5v10Zm20 0H22.5v-17.5H35Z"/><path d="M25 20.543h2.5v5H25Zm5 0h2.5v5H30Zm-5 7.5h2.5v5H25Zm5 0h2.5v5H30Z"/></g><defs><clipPath id="clip0_337_7289"><path fill="#fff" d="M0 .543h40v40H0Z"/></clipPath></defs></svg>