<svg xmlns="http://www.w3.org/2000/svg" width="28" height="28" viewBox="0 0 28 28" fill="none">
<rect width="28" height="28" rx="14" fill="#268CEB"/>
<path d="M19.8122 17.9988C19.7343 18.3335 19.5506 18.6342 19.2884 18.8563C18.9956 19.154 18.6461 19.3901 18.2606 19.5506C17.8751 19.7111 17.4613 19.7928 17.0437 19.7908H16.8349C15.9681 19.7456 15.1185 19.5312 14.3341 19.1596C14.1439 19.0703 13.959 18.9869 13.7391 18.8854C12.8198 18.3662 11.976 17.7234 11.2314 16.975C10.2633 16.0671 9.47011 14.9894 8.89103 13.7953C8.57222 13.1438 8.35748 12.4464 8.25461 11.7285C8.11089 10.9804 8.19586 10.2063 8.49844 9.50717C8.68666 9.18977 8.91704 8.89935 9.18328 8.64383C9.30489 8.51117 9.45194 8.40433 9.61569 8.32967C9.77944 8.25501 9.95654 8.21406 10.1364 8.20925C10.3326 8.22999 10.5227 8.28969 10.6955 8.38485C10.8683 8.48001 11.0203 8.60871 11.1427 8.76342C11.4169 9.06675 11.7377 9.35842 12.0294 9.66758L12.405 10.0374C12.6267 10.2317 12.7638 10.5053 12.7859 10.7993C12.7865 11.0699 12.6868 11.3307 12.5059 11.5319C12.3921 11.673 12.271 11.8082 12.1431 11.9368L12.0177 12.068C11.9447 12.1359 11.8877 12.2192 11.8509 12.3118C11.8205 12.4017 11.81 12.4973 11.8217 12.5918C11.9174 12.8508 12.0673 13.0865 12.2621 13.2825C12.5654 13.6932 12.8571 14.0508 13.1849 14.4737C13.7504 15.126 14.4207 15.6794 15.1683 16.1111C15.24 16.1694 15.3258 16.2085 15.4179 16.2243C15.4996 16.2365 15.5819 16.2243 15.6559 16.1881C15.8831 16.0665 16.0852 15.903 16.2515 15.7063C16.4615 15.4473 16.766 15.2828 17.0974 15.2472C17.2564 15.2478 17.4137 15.2802 17.56 15.3426C17.7063 15.4051 17.8386 15.4962 17.949 15.6106C18.0851 15.728 18.2141 15.8531 18.3358 15.9857L18.5143 16.1764L18.6992 16.3549C18.8118 16.4681 18.9191 16.5696 19.0259 16.6886C19.2203 16.8558 19.4011 17.0364 19.5684 17.2305C19.7393 17.4487 19.8256 17.7217 19.8122 17.9988Z" fill="white"/>
</svg>