<svg xmlns="http://www.w3.org/2000/svg" width="28" height="28" fill="none" viewBox="0 0 28 28"><rect width="28" height="28" fill="#268ceb" rx="14"/><path fill="#fff" d="M19.812 17.999a1.6 1.6 0 0 1-.524.858 3.13 3.13 0 0 1-2.245.934h-.209a6.7 6.7 0 0 1-2.5-.631c-.19-.09-.375-.173-.595-.275a11.6 11.6 0 0 1-2.508-1.91 10.9 10.9 0 0 1-2.34-3.18 7 7 0 0 1-.636-2.067 3.8 3.8 0 0 1 .244-2.221c.188-.317.418-.608.684-.863a1.34 1.34 0 0 1 .953-.435 1.48 1.48 0 0 1 1.006.554c.275.304.596.595.887.905l.376.37c.222.194.359.467.38.761.002.27-.098.532-.28.733a5 5 0 0 1-.363.405l-.124.131a.7.7 0 0 0-.167.244.6.6 0 0 0-.03.28c.096.259.246.494.441.69.303.411.595.769.923 1.192a7.8 7.8 0 0 0 1.983 1.637.54.54 0 0 0 .25.113q.125.018.238-.036c.227-.121.43-.285.595-.482.21-.259.515-.423.846-.459a1.2 1.2 0 0 1 .852.363q.204.177.387.376l.178.19.185.179c.113.113.22.215.327.334q.291.25.542.541c.171.219.258.492.244.769"/></svg>