<svg xmlns="http://www.w3.org/2000/svg" width="40" height="41" viewBox="0 0 40 41" fill="none">
<path d="M18.75 14.293H21.25V25.543H18.75V14.293ZM16.25 3.04297H23.75V5.54297H16.25V3.04297Z" fill="#268CEB"/>
<path d="M34.9998 11.7934L33.2248 10.0309L30.4123 12.8434C28.1101 10.1846 24.872 8.51515 21.3708 8.18174C17.8697 7.84833 14.3747 8.87665 11.612 11.053C8.84936 13.2294 7.03139 16.3865 6.53587 19.8684C6.04035 23.3503 6.90538 26.8893 8.95121 29.75C10.9971 32.6107 14.0664 34.5732 17.5215 35.2297C20.9767 35.8863 24.552 35.1864 27.5045 33.2756C30.4571 31.3647 32.5599 28.3897 33.3761 24.9688C34.1923 21.5478 33.6591 17.9439 31.8873 14.9059L34.9998 11.7934ZM19.9998 33.0434C17.7748 33.0434 15.5997 32.3836 13.7496 31.1474C11.8996 29.9112 10.4576 28.1542 9.60616 26.0985C8.75467 24.0429 8.53188 21.7809 8.96597 19.5986C9.40005 17.4163 10.4715 15.4117 12.0449 13.8384C13.6182 12.2651 15.6228 11.1936 17.805 10.7595C19.9873 10.3254 22.2493 10.5482 24.305 11.3997C26.3607 12.2512 28.1177 13.6931 29.3538 15.5432C30.59 17.3932 31.2498 19.5683 31.2498 21.7934C31.2498 24.777 30.0645 27.6385 27.9548 29.7483C25.845 31.8581 22.9835 33.0434 19.9998 33.0434Z" fill="#268CEB"/>
</svg>