<svg width="40" height="41" viewBox="0 0 40 41" fill="none" xmlns="http://www.w3.org/2000/svg">
<path d="M22.5 29.293H20V26.793C19.999 25.7987 19.6036 24.8455 18.9006 24.1424C18.1975 23.4394 17.2443 23.044 16.25 23.043H11.25C10.2557 23.044 9.30249 23.4394 8.59945 24.1424C7.8964 24.8455 7.50099 25.7987 7.5 26.793V29.293H5V26.793C5.00198 25.136 5.6611 23.5474 6.83278 22.3757C8.00445 21.2041 9.59301 20.545 11.25 20.543H16.25C17.907 20.545 19.4956 21.2041 20.6672 22.3757C21.8389 23.5474 22.498 25.136 22.5 26.793V29.293ZM13.75 8.04297C14.4917 8.04297 15.2167 8.2629 15.8334 8.67496C16.4501 9.08701 16.9307 9.67268 17.2145 10.3579C17.4984 11.0431 17.5726 11.7971 17.4279 12.5246C17.2833 13.252 16.9261 13.9202 16.4017 14.4446C15.8772 14.9691 15.209 15.3262 14.4816 15.4709C13.7542 15.6156 13.0002 15.5413 12.3149 15.2575C11.6297 14.9737 11.044 14.493 10.632 13.8764C10.2199 13.2597 10 12.5346 10 11.793C10 10.7984 10.3951 9.84458 11.0983 9.14132C11.8016 8.43806 12.7554 8.04297 13.75 8.04297ZM13.75 5.54297C12.5139 5.54297 11.3055 5.90952 10.2777 6.59628C9.24988 7.28304 8.4488 8.25916 7.97575 9.4012C7.50271 10.5432 7.37893 11.7999 7.62009 13.0123C7.86125 14.2247 8.4565 15.3383 9.33058 16.2124C10.2047 17.0865 11.3183 17.6817 12.5307 17.9229C13.7431 18.164 14.9997 18.0403 16.1418 17.5672C17.2838 17.0942 18.2599 16.2931 18.9467 15.2653C19.6334 14.2375 20 13.0291 20 11.793C20 10.1354 19.3415 8.54565 18.1694 7.37355C16.9973 6.20145 15.4076 5.54297 13.75 5.54297ZM2.5 33.043H37.5V35.543H2.5V33.043ZM34.1287 10.543C33.6841 10.543 33.2439 10.6322 32.8342 10.8052C32.4246 10.9783 32.0538 11.2317 31.7438 11.5505L31.25 12.0555L30.7562 11.5492C30.4462 11.2305 30.0754 10.9772 29.6657 10.8042C29.2561 10.6312 28.8159 10.5421 28.3713 10.5421C27.9266 10.5421 27.4864 10.6312 27.0768 10.8042C26.6671 10.9772 26.2963 11.2305 25.9862 11.5492C25.3539 12.2021 25.0004 13.0753 25.0004 13.9842C25.0004 14.8931 25.3539 15.7663 25.9862 16.4192L31.25 21.793L36.5125 16.4205C37.1448 15.7676 37.4984 14.8944 37.4984 13.9855C37.4984 13.0766 37.1448 12.2033 36.5125 11.5505C36.2027 11.232 35.8323 10.9788 35.4232 10.8057C35.014 10.6327 34.5743 10.5433 34.13 10.543H34.1287Z" fill="#268CEB"/>
</svg>
