<svg width="40" height="41" viewBox="0 0 40 41" fill="none" xmlns="http://www.w3.org/2000/svg">
<path d="M25 24.293H22.5V21.793H17.5V24.293H15V21.793C15.0007 21.1301 15.2643 20.4946 15.733 20.0259C16.2017 19.5572 16.8372 19.2936 17.5 19.293H22.5C23.1628 19.2936 23.7983 19.5572 24.267 20.0259C24.7357 20.4946 24.9993 21.1301 25 21.793V24.293ZM20 18.043C19.2583 18.043 18.5333 17.823 17.9166 17.411C17.2999 16.9989 16.8193 16.4133 16.5355 15.728C16.2516 15.0428 16.1774 14.2888 16.3221 13.5614C16.4667 12.834 16.8239 12.1658 17.3483 11.6413C17.8728 11.1169 18.541 10.7597 19.2684 10.615C19.9958 10.4703 20.7498 10.5446 21.4351 10.8284C22.1203 11.1123 22.706 11.5929 23.118 12.2096C23.5301 12.8263 23.75 13.5513 23.75 14.293C23.749 15.2872 23.3536 16.2405 22.6506 16.9435C21.9475 17.6466 20.9943 18.042 20 18.043ZM20 13.043C19.7528 13.043 19.5111 13.1163 19.3055 13.2536C19.1 13.391 18.9398 13.5862 18.8452 13.8146C18.7505 14.043 18.7258 14.2944 18.774 14.5368C18.8222 14.7793 18.9413 15.002 19.1161 15.1769C19.2909 15.3517 19.5137 15.4707 19.7561 15.519C19.9986 15.5672 20.2499 15.5424 20.4784 15.4478C20.7068 15.3532 20.902 15.193 21.0393 14.9874C21.1767 14.7819 21.25 14.5402 21.25 14.293C21.2497 13.9616 21.1179 13.6438 20.8835 13.4095C20.6492 13.1751 20.3314 13.0433 20 13.043Z" fill="#268CEB"/>
<path d="M20 38.043L9.45502 25.6067C9.30849 25.42 9.16349 25.2321 9.02001 25.043C7.21874 22.6702 6.24565 19.772 6.25001 16.793C6.25001 13.1462 7.69867 9.64888 10.2773 7.07025C12.8559 4.49163 16.3533 3.04297 20 3.04297C23.6467 3.04297 27.1441 4.49163 29.7227 7.07025C32.3014 9.64888 33.75 13.1462 33.75 16.793C33.7544 19.7706 32.7817 22.6675 30.9813 25.0392L30.98 25.043C30.98 25.043 30.605 25.5355 30.5488 25.6017L20 38.043ZM11.015 23.5367C11.0175 23.5367 11.3075 23.9217 11.3738 24.0042L20 34.178L28.6375 23.9905C28.6925 23.9217 28.985 23.5342 28.9863 23.533C30.4577 21.5944 31.2529 19.2268 31.25 16.793C31.25 13.8093 30.0648 10.9478 27.955 8.83802C25.8452 6.72823 22.9837 5.54297 20 5.54297C17.0163 5.54297 14.1548 6.72823 12.0451 8.83802C9.93528 10.9478 8.75001 13.8093 8.75001 16.793C8.74739 19.2283 9.54224 21.5972 11.015 23.5367Z" fill="#268CEB"/>
</svg>
