<svg width="32" height="32" viewBox="0 0 32 32" fill="none" xmlns="http://www.w3.org/2000/svg">
<path d="M23 27.59L20.41 25L19 26.41L23 30.41L31 22.41L29.59 21L23 27.59ZM16 23L13.861 21.987C13.0065 21.5799 12.2845 20.9396 11.7783 20.1398C11.2721 19.3401 11.0023 18.4135 11 17.467V11H21V17.468C20.9977 18.4145 20.7279 19.3411 20.2217 20.1408C19.7155 20.9406 18.9935 21.5809 18.139 21.988L16 23ZM13 13V17.468C13.0015 18.0357 13.1636 18.5913 13.4674 19.0708C13.7712 19.5503 14.2044 19.9342 14.717 20.178L16 20.786L17.283 20.179C17.7958 19.9351 18.2291 19.5511 18.5329 19.0714C18.8367 18.5917 18.9987 18.0358 19 17.468V13H13ZM4.12 17.656C4.40593 17.4627 4.63698 17.1988 4.79068 16.8898C4.94439 16.5808 5.01552 16.2373 4.99717 15.8926C4.97881 15.548 4.87159 15.214 4.68593 14.9231C4.50027 14.6322 4.24249 14.3942 3.93765 14.2324C3.63281 14.0706 3.29129 13.9905 2.9463 13.9997C2.60131 14.009 2.26459 14.1074 1.96887 14.2853C1.67316 14.4632 1.42852 14.7147 1.25874 15.0151C1.08897 15.3156 0.99983 15.6549 1 16C1 16.789 1.46 17.464 2.124 17.79C2.45608 20.4239 3.53286 22.9084 5.22786 24.9517C6.92287 26.9949 9.16572 28.5121 11.693 29.325L12.307 27.421C10.1603 26.7314 8.25242 25.4485 6.80388 23.7206C5.35535 21.9927 4.42424 19.8902 4.12 17.656ZM29.877 14.21C29.5449 11.5761 28.4681 9.09156 26.7731 7.0483C25.0781 5.00505 22.8353 3.48789 20.308 2.675L19.694 4.579C21.8407 5.26859 23.7486 6.55146 25.1971 8.2794C26.6457 10.0073 27.5758 12.1098 27.88 14.344C27.5941 14.5373 27.363 14.8012 27.2093 15.1102C27.0556 15.4192 26.9845 15.7627 27.0028 16.1074C27.0212 16.452 27.1284 16.786 27.3141 17.0769C27.4997 17.3678 27.7575 17.6058 28.0624 17.7676C28.3672 17.9294 28.7087 18.0095 29.0537 18.0003C29.3987 17.991 29.7354 17.8926 30.0311 17.7147C30.3268 17.5368 30.5715 17.2853 30.7413 16.9849C30.911 16.6844 31.0002 16.3451 31 16C30.9998 15.6263 30.8943 15.2602 30.6957 14.9436C30.4971 14.6271 30.2134 14.3728 29.877 14.21ZM16 1C15.211 1 14.536 1.46 14.21 2.124C11.5762 2.456 9.09176 3.53263 7.04852 5.22745C5.00528 6.92226 3.48805 9.1649 2.675 11.692L4.579 12.308C5.26843 10.1611 6.55123 8.25302 8.27918 6.8043C10.0071 5.35558 12.1097 4.42532 14.344 4.121C14.5374 4.40674 14.8014 4.63759 15.1104 4.79111C15.4194 4.94464 15.7629 5.01561 16.1074 4.99713C16.452 4.97865 16.7859 4.87135 17.0767 4.68566C17.3675 4.49997 17.6053 4.2422 17.767 3.93741C17.9287 3.63262 18.0089 3.29118 17.9996 2.94627C17.9903 2.60136 17.892 2.26471 17.7141 1.96905C17.5363 1.67339 17.2849 1.42877 16.9846 1.25896C16.6842 1.08916 16.345 0.999947 16 1Z" fill="#268CEB"/>
</svg>
