<svg width="48" height="48" viewBox="0 0 48 48" fill="none" xmlns="http://www.w3.org/2000/svg">
<rect width="48" height="48" rx="24" fill="#EBF3FF"/>
<path d="M30.5 13.5859L34.914 17.9999L33.5 19.4139L31.5 17.4139V30.5859L33.5 28.5859L34.914 29.9999L30.5 34.4139L26.086 29.9999L27.5 28.5859L29.5 30.5859V17.4139L27.5 19.4139L26.086 17.9999L30.5 13.5859ZM14 13.9999H24V33.9999H14V13.9999ZM16 15.9999V31.9999H22V15.9999H16Z" fill="#268CEB"/>
<g clip-path="url(#clip0_402_5138)">
<path fill-rule="evenodd" clip-rule="evenodd" d="M40 32C44.4153 32 48 35.5847 48 40C48 44.4153 44.4153 48 40 48C35.5847 48 32 44.4153 32 40C32 35.5847 35.5847 32 40 32Z" fill="#2BB109"/>
<path fill-rule="evenodd" clip-rule="evenodd" d="M36.9195 41.001L38.645 42.7448C38.8071 42.9086 39.0262 43.0002 39.2554 43.0002C39.4841 43.0002 39.7032 42.9086 39.8652 42.7448L43.7478 38.8212C44.0845 38.4809 44.0845 37.929 43.7478 37.5887C43.4111 37.2484 42.8643 37.2484 42.5276 37.5887L39.2548 40.8955L38.1397 39.768C37.803 39.4277 37.2562 39.4277 36.9195 39.768C36.5828 40.1082 36.5828 40.6608 36.9195 41.001Z" fill="white"/>
</g>
<defs>
<clipPath id="clip0_402_5138">
<rect width="16" height="16" fill="white" transform="translate(32 32)"/>
</clipPath>
</defs>
</svg>
