<svg width="24" height="24" viewBox="0 0 24 24" fill="none" xmlns="http://www.w3.org/2000/svg">
<path d="M15.1247 15.7496C18.9212 15.7496 21.999 12.6718 21.999 8.87529C21.999 5.07879 18.9212 2.00098 15.1247 2.00098C11.3282 2.00098 8.25035 5.07879 8.25035 8.87529C8.25035 9.60569 8.36362 10.3126 8.57454 10.9727L2.27439 17.2729C2.09862 17.4487 2.00098 17.6869 2.00098 17.9369V21.0616C2.00098 21.5811 2.4189 21.999 2.93838 21.999H6.06307C6.58255 21.999 7.00048 21.5811 7.00048 21.0616V19.4992H8.56282C9.0823 19.4992 9.50023 19.0813 9.50023 18.5618V16.9995H11.0626C11.3125 16.9995 11.5508 16.9018 11.7266 16.7261L13.0272 15.4254C13.6873 15.6363 14.3943 15.7496 15.1247 15.7496ZM16.687 5.7506C17.1014 5.7506 17.4988 5.91521 17.7918 6.2082C18.0847 6.5012 18.2494 6.89859 18.2494 7.31295C18.2494 7.72731 18.0847 8.12469 17.7918 8.41769C17.4988 8.71069 17.1014 8.87529 16.687 8.87529C16.2727 8.87529 15.8753 8.71069 15.5823 8.41769C15.2893 8.12469 15.1247 7.72731 15.1247 7.31295C15.1247 6.89859 15.2893 6.5012 15.5823 6.2082C15.8753 5.91521 16.2727 5.7506 16.687 5.7506Z" fill="#268CEB"/>
</svg>
