<svg width="16" height="16" viewBox="0 0 16 16" fill="none" xmlns="http://www.w3.org/2000/svg">
<path d="M12.1974 3.09134C11.6555 2.52651 11.0049 2.07708 10.2849 1.77006C9.56485 1.46304 8.79016 1.30478 8.0074 1.30478C7.22463 1.30478 6.44995 1.46304 5.72991 1.77006C5.00986 2.07708 4.35933 2.52651 3.8174 3.09134C2.7974 4.42467 2.48406 6.42467 3.0574 8.478C3.64406 10.698 5.21073 12.3047 6.47073 13.5913L7.08407 14.258C7.20319 14.3844 7.34586 14.4863 7.50406 14.558C7.66253 14.6284 7.834 14.6648 8.0074 14.6648C8.18079 14.6648 8.35226 14.6284 8.51073 14.558C8.666 14.4876 8.80631 14.388 8.92406 14.2647L9.54407 13.598C10.8041 12.3113 12.3707 10.7047 12.9574 8.48467C13.4974 6.42467 13.2174 4.42467 12.1974 3.09134ZM8.00406 8.59134C7.50637 8.59145 7.02184 8.43152 6.62201 8.13516C6.22218 7.83879 5.92825 7.4217 5.78363 6.94549C5.63901 6.46927 5.65136 5.95917 5.81886 5.49052C5.98637 5.02186 6.30014 4.61949 6.71385 4.34283C7.12755 4.06616 7.61927 3.92987 8.11637 3.95408C8.61347 3.97829 9.08961 4.16172 9.47448 4.47727C9.85934 4.79282 10.1325 5.22378 10.2537 5.70649C10.3749 6.18921 10.3376 6.69809 10.1474 7.158C9.9717 7.58141 9.67416 7.94307 9.29255 8.19708C8.91095 8.45109 8.46248 8.58599 8.00406 8.58467V8.59134Z" fill="black"/>
</svg>
