<svg width="40" height="41" viewBox="0 0 40 41" fill="none" xmlns="http://www.w3.org/2000/svg">
<g clip-path="url(#clip0_337_7289)">
<path d="M32.2477 13.0426C31.6684 10.2067 30.123 7.65958 27.875 5.83613C25.627 4.01269 22.8159 3.0259 19.9215 3.0442C17.027 3.06249 14.2286 4.08473 12.0039 5.93644C9.77912 7.78815 8.26596 10.3546 7.72265 13.1976C5.4156 13.6083 3.34616 14.8685 1.92242 16.7297C0.498684 18.5908 -0.175997 20.918 0.0314304 23.2521C0.238858 25.5862 1.31334 27.7578 3.04297 29.3388C4.77261 30.9198 7.03184 31.7953 9.37515 31.7926H10.0001V29.2926H9.37515C7.59084 29.2973 5.87473 28.6075 4.58996 27.3693C3.30519 26.1311 2.55256 24.4417 2.49133 22.6584C2.4301 20.8751 3.06508 19.138 4.2619 17.8146C5.45872 16.4912 7.12348 15.6854 8.9039 15.5676L9.95015 15.4964L10.0626 14.4551C10.3158 12.1299 11.3768 9.96727 13.0606 8.34388C14.7444 6.7205 16.9444 5.73931 19.2773 5.57125C21.6102 5.40319 23.9281 6.05892 25.8272 7.42419C27.7263 8.78946 29.0863 10.7777 29.6701 13.0426H32.2477Z" fill="#268CEB"/>
<path d="M35 15.543H22.5C21.8372 15.5436 21.2017 15.8072 20.733 16.2759C20.2643 16.7446 20.0007 17.3801 20 18.043V23.043H15C14.3372 23.0436 13.7017 23.3072 13.233 23.7759C12.7643 24.2446 12.5007 24.8801 12.5 25.543V38.043H37.5V18.043C37.4993 17.3801 37.2357 16.7446 36.767 16.2759C36.2983 15.8072 35.6628 15.5436 35 15.543ZM15 35.543V25.543H20V35.543H15ZM35 35.543H22.5V18.043H35V35.543Z" fill="#268CEB"/>
<path d="M25 20.543H27.5V25.543H25V20.543ZM30 20.543H32.5V25.543H30V20.543ZM25 28.043H27.5V33.043H25V28.043ZM30 28.043H32.5V33.043H30V28.043Z" fill="#268CEB"/>
</g>
<defs>
<clipPath id="clip0_337_7289">
<rect width="40" height="40" fill="white" transform="translate(0 0.542969)"/>
</clipPath>
</defs>
</svg>
